Coordinates
version=1
nRows=10
nColumns=38
inDegrees=yes

Units are S.I. units (second, meters, Newtons, ...)
Angles are in degrees.

endheader
time	pelvis_tilt	pelvis_list	pelvis_rotation	pelvis_tx	pelvis_ty	pelvis_tz	hip_flexion_r	hip_adduction_r	hip_rotation_r	knee_angle_r	ankle_angle_r	subtalar_angle_r	mtp_angle_r	hip_flexion_l	hip_adduction_l	hip_rotation_l	knee_angle_l	ankle_angle_l	subtalar_angle_l	mtp_angle_l	lumbar_extension	lumbar_bending	lumbar_rotation	arm_flex_r	arm_add_r	arm_rot_r	elbow_flex_r	pro_sup_r	wrist_flex_r	wrist_dev_r	arm_flex_l	arm_add_l	arm_rot_l	elbow_flex_l	pro_sup_l	wrist_flex_l	wrist_dev_l
      1.85000000	      2.97772089	      1.27819537	      3.08059708	      0.64467220	      0.91697516	     -0.26677802	     22.61837520	     -4.21185727	    -16.97288587	    -19.95431154	      3.23251106	     -3.97568694	      0.00000000	    -13.82439066	     -0.18835707	     -3.64881386	    -28.67928745	      9.27992407	      0.84948421	      0.00000000	    -13.02476257	      3.47516785	     -8.32600391	     -3.69757351	     -5.51912602	     46.47192343	     19.91407850	     44.40372377	      0.00000000	      0.00000000	     22.94047355	     -9.50166570	     41.41431969	     45.77494384	     44.40372377	      0.00000000	      0.00000000
      1.86000000	      3.20393567	      1.15132869	      2.99916504	      0.65748619	      0.91806238	     -0.26527821	     22.24362658	     -4.10224007	    -16.74723280	    -21.23787513	      2.60855382	     -3.81924717	      0.00000000	    -13.61539256	     -0.56187506	     -3.95061362	    -30.53762896	      6.95666968	      0.67205497	      0.00000000	    -13.13791720	      3.75685639	     -8.14593943	     -3.57496271	     -5.63237122	     46.44540340	     19.88805961	     44.40716066	      0.00000000	      0.00000000	     22.31875345	     -9.38087241	     41.47288735	     45.70939300	     44.40716066	      0.00000000	      0.00000000
      1.87000000	      3.39897457	      0.93018187	      2.81446415	      0.67026083	      0.91920427	     -0.26357417	     21.74964337	     -3.73191530	    -16.17343144	    -22.20842674	      2.54618571	     -3.80090249	      0.00000000	    -13.07770179	     -1.04790650	     -4.51193666	    -32.81039856	      4.21894320	      0.34730650	      0.00000000	    -13.21856150	      4.11180110	     -7.88566036	     -3.40827971	     -5.76042240	     46.41017030	     19.86788631	     44.41088827	      0.00000000	      0.00000000	     21.60452104	     -9.28503262	     41.52162722	     45.60655791	     44.41088827	      0.00000000	      0.00000000
      1.88000000	      3.44709602	      0.60744545	      2.52698793	      0.68277435	      0.92021807	     -0.26147379	     21.30395577	     -3.06096444	    -15.18472473	    -22.77792097	      2.57861617	     -4.75497998	      0.00000000	    -12.12589165	     -1.63160072	     -5.21963031	    -35.34132743	      1.04254077	     -0.23121472	      0.00000000	    -13.15635716	      4.50991936	     -7.55623615	     -3.21930448	     -5.87225686	     46.29633572	     19.86160055	     44.43526078	      0.00000000	      0.00000000	     20.73539902	     -9.13585218	     41.09812784	     45.53746844	     44.43526078	      0.00000000	      0.00000000
      1.89000000	      3.48424349	      0.28803366	      2.25695621	      0.69512091	      0.92124355	     -0.25916702	     20.78592158	     -2.48255111	    -14.50206905	    -23.29763265	      2.95322454	     -4.94286455	      0.00000000	    -11.08066001	     -2.21027758	     -5.82550160	    -37.82380553	     -2.93877543	     -1.37580225	      0.00000000	    -13.10077205	      4.86776341	     -7.21080160	     -3.00885948	     -5.96160086	     46.25312166	     19.89061663	     44.44128802	      0.00000000	      0.00000000	     19.93394019	     -9.09344715	     41.11335097	     45.40463508	     44.44128802	      0.00000000	      0.00000000
      1.90000000	      3.60261880	      0.22103397	      1.67053019	      0.70793614	      0.92244753	     -0.25617445	     20.11940963	     -1.96316542	    -13.47410308	    -23.75006680	      3.38975747	     -5.72459881	      0.00000000	    -10.22225646	     -2.50299790	     -6.62107865	    -40.05163574	     -6.65912425	     -2.77836361	      0.00000000	    -13.09966380	      4.82950024	     -6.56592434	     -2.89478484	     -5.99623822	     46.21274323	     19.95355369	     44.45099707	      0.00000000	      0.00000000	     19.02837486	     -9.06153555	     41.04845926	     45.26119597	     44.45099707	      0.00000000	      0.00000000
      1.91000000	      3.63778587	      0.00261604	      1.75664175	      0.71966338	      0.92336294	     -0.25418150	     19.51191961	     -1.56556599	    -13.14481349	    -24.19881943	      4.08643302	     -5.95684488	      0.00000000	     -8.82481847	     -3.25195491	     -6.91865245	    -42.94053945	     -9.30550442	     -3.43458423	      0.00000000	    -13.11501765	      5.09178696	     -6.47090106	     -2.61719085	     -6.01692844	     46.19069917	     20.02723235	     44.45354959	      0.00000000	      0.00000000	     18.38151895	     -9.03572404	     41.10837718	     45.10345816	     44.45354959	      0.00000000	      0.00000000
      1.92000000	      3.10023481	     -0.38916604	      1.94140001	      0.73072911	      0.92346890	     -0.25226904	     19.48811051	     -0.99127197	    -13.27199429	    -24.41346837	      4.33340056	     -6.76247272	      0.00000000	     -6.43770037	     -3.97208547	     -6.62185460	    -46.39833809	    -11.58424140	     -5.14455335	      0.00000000	    -12.51402988	      5.53971137	     -6.40981660	     -2.35093918	     -6.14427875	     46.16820794	     20.17413810	     44.46107013	      0.00000000	      0.00000000	     17.57465540	     -8.97866252	     41.09525375	     44.76390310	     44.46107013	      0.00000000	      0.00000000
      1.93000000	      2.89270742	     -0.61180575	      2.15689712	      0.74174661	      0.92395335	     -0.25053759	     19.06220568	     -0.62578402	    -12.98017380	    -24.63884422	      4.94333764	     -7.07198243	      0.00000000	     -4.30227202	     -4.40228692	     -5.95719921	    -49.90152050	    -13.51401737	     -5.96930201	      0.00000000	    -12.32040480	      5.80116825	     -6.36802022	     -2.03773168	     -6.23846180	     46.15669612	     20.35456998	     44.46750364	      0.00000000	      0.00000000	     16.92639419	     -8.90046221	     41.10473576	     44.40089486	     44.46750364	      0.00000000	      0.00000000
      1.94000000	      2.87424451	     -0.75053877	      2.35324752	      0.75261635	      0.92467249	     -0.24888026	     18.41010362	     -0.35422819	    -12.98995147	    -24.82547274	      5.75271023	     -7.32555502	      0.00000000	     -2.32463318	     -4.67308413	     -5.07866527	    -53.31722637	    -14.99916838	     -5.99531099	      0.00000000	    -12.35732609	      5.94835487	     -6.24087546	     -1.68318989	     -6.33064087	     46.15028983	     20.52569589	     44.47168709	      0.00000000	      0.00000000	     16.36343126	     -8.81289891	     41.14838317	     44.07214523	     44.47168709	      0.00000000	      0.00000000
